# xmcd
#
# Track frame offsets:
# 150
# 48135
# 86105
# 111846
# 159853
# 191613
# 225000
# 265922
# 303592
#
# Disc length: 4540 seconds
#
#
# Revision: 0
# Processed by: cddbd v1.5.2PL0 Copyright (c) Steve Scherf et al.
# Submitted via: FreeRIP 2.96 
#
DISCID=6411ba09
DTITLE=Eliot Pattison - Der fremde Tibeter CD1v7
DYEAR=2007
DGENRE=Speech
TTITLE0=01 Der fremde Tibeter
TTITLE1=02 Der fremde Tibeter
TTITLE2=03 Der fremde Tibeter
TTITLE3=04 Der fremde Tibeter
TTITLE4=05 Der fremde Tibeter
TTITLE5=06 Der fremde Tibeter
TTITLE6=07 Der fremde Tibeter
TTITLE7=08 Der fremde Tibeter
TTITLE8=09 Der fremde Tibeter
EXTD=gelesen von Wolfgang Rüter\nTextanfänge geht nicht weiter
EXTT0=
EXTT1=
EXTT2=
EXTT3=
EXTT4=
EXTT5=
EXTT6=
EXTT7=
EXTT8=
PLAYORDER=
